# xmcd
#
# Track frame offsets:
#	150
#	9835
#	24520
#	38010
#	53324
#	71359
#	86140
#	105874
#	121499
#	140649
#	159297
#	176248
#	191374
#	208770
#	223756
#	235616
#
# Disc length: 3386 seconds
#
# Revision: 1
# Processed by: cddbd v1.5.2PL0 Copyright (c) Steve Scherf et al.
# Submitted via: audiograbber 1.83.01
#
DISCID=c90d3810
DTITLE=Moonshine Bandits - Baptized in Bourbon
DYEAR=2017
DGENRE=Country
TTITLE0=The Sermon (Intro)
TTITLE1=I'm a HellRazor (feat. Crucifix)
TTITLE2=Red, White and Blue Collar
TTITLE3=Stomp Like Hell
TTITLE4=51FIFTY (feat. Bubba Sparxxx)
TTITLE5=Ain't Hearin' Nothin'
TTITLE6=Cards I Was Dealt (feat. The Lacs)
TTITLE7=Renegade Rides Again
TTITLE8=Hell on Heels
TTITLE9=Baptized in Bourbon (feat. Uncle Kracker)
TTITLE10=Dad's Pontoon (feat. Colt Ford and Outlaw)
TTITLE11=Shook It Up (feat. Matt Borden)
TTITLE12=I Don't Wanna Go Home (feat. Durwood Black)
TTITLE13=Take This Job (feat. David Allan Coe)
TTITLE14=Wild Ones (feat. Jelly Roll)
TTITLE15=Raised Up (feat. Demun Jones)
EXTD=
EXTT0=
EXTT1=
EXTT2=
EXTT3=
EXTT4=
EXTT5=
EXTT6=
EXTT7=
EXTT8=
EXTT9=
EXTT10=
EXTT11=
EXTT12=
EXTT13=
EXTT14=
EXTT15=
PLAYORDER=
